<svg id="Layer_1" data-name="Layer 1" xmlns="http://www.w3.org/2000/svg" width="7.15cm" height="7.04cm" viewBox="0 0 202.65 199.62"><defs><style>.cls-1{fill:#182016;}</style></defs><path class="cls-1" d="M202.5,198.34q.3.58,0,.87c0,.2-.19.3-.58.3h-.58L62.88,99.29a1.16,1.16,0,0,1-.29-.87.84.84,0,0,1,.29-.59L189.4,3.8,142.64,21.33h-.29c-.19,0-.49-.19-.87-.59,0-.58.19-.87.58-.87L194.36,0a1.27,1.27,0,0,1,.88.29.73.73,0,0,1,.15,1,.54.54,0,0,1-.15.15l-1.46,1.17L101.16,87.36l.29.3L130.66,135v.29l67.84,59.26-24-40.31c0-.59.1-.88.3-.88.58-.19,1-.1,1.16.29Zm-29.8-21.62L75.12,99.29a.61.61,0,0,0-.15-.43.59.59,0,0,1-.15-.44c0-.19.05-.3.15-.3s.15-.09.15-.29l92.32-76L64.93,98.42ZM76.91,98.42l99,78.59L81.83,94.62Zm93.2-76.27L83.05,93.45l4.67,4.09ZM88.89,98.71l18.69,16.36L100,88.48Zm14.32-5.26,6.42,23.08.29.3,16.65,14.61Z"/><path class="cls-1" d="M201.58,198.45c.19.39.19.69,0,.88,0,.19-.19.29-.58.29h-.59L61.92,99.41a1.24,1.24,0,0,1-.29-.88.82.82,0,0,1,.29-.58L188.43,3.86,141.68,21.39h-.29c-.2,0-.49-.19-.88-.59,0-.58.2-.87.59-.87L193.4.06a1.27,1.27,0,0,1,.88.29.73.73,0,0,1,.15,1,.54.54,0,0,1-.15.15l-1.46,1.17L100.2,87.43l.29.29,29.21,47.33v.3l67.8,59.3-24-40.31c0-.59.1-.88.29-.88.59-.19,1-.09,1.17.29Zm-29.8-21.66L74.19,99.37a.63.63,0,0,0-.14-.44.56.56,0,0,1-.15-.44c0-.19,0-.29.15-.29s.14-.1.14-.29l92.33-76L64,98.53ZM76,98.49l99,78.59L80.92,94.69Zm93.2-76.26L82.08,93.52l4.68,4.09ZM87.93,98.8l18.69,16.36L99,88.57Zm14.32-5.26,6.41,23.09.3.29,16.65,14.61Z"/><path class="cls-1" d="M140.88,198.34q.3.58,0,.87c0,.2-.19.3-.58.3h-.58L1.25,99.29A1.2,1.2,0,0,1,1,98.42a.88.88,0,0,1,.29-.59l126.53-94L81,21.33h-.29c-.19,0-.49-.19-.87-.59,0-.58.19-.87.58-.87L132.74,0a1.28,1.28,0,0,1,.88.29.73.73,0,0,1,.15,1l-.15.15-1.46,1.17L39.53,87.36l.29.3L69,135v.29l67.84,59.26-24-40.31c0-.59.1-.88.3-.88.58-.19,1-.1,1.16.29Zm-29.8-21.62L13.49,99.29a.57.57,0,0,0-.15-.43.64.64,0,0,1-.15-.44c0-.19.05-.3.15-.3s.15-.09.15-.29l92.33-76L3.3,98.42Zm-95.8-78.3,99,78.59L20.2,94.62Zm93.21-76.27L21.42,93.45l4.67,4.09ZM27.26,98.71,46,115.07l-7.6-26.59Zm14.32-5.26L48,116.53l.29.3L65,131.44Z"/><path class="cls-1" d="M140,198.45c.19.39.19.69,0,.88,0,.19-.19.29-.58.29h-.59L.29,99.41A1.28,1.28,0,0,1,0,98.53.86.86,0,0,1,.29,98L126.81,3.86,80.06,21.39h-.29c-.2,0-.49-.19-.88-.59,0-.58.2-.87.59-.87L131.78.06a1.28,1.28,0,0,1,.88.29.73.73,0,0,1,.15,1,1.06,1.06,0,0,1-.15.15L131.2,2.69,38.57,87.43l.29.29,29.22,47.33v.3l67.8,59.3-24-40.31c0-.59.1-.88.29-.88.59-.19,1-.09,1.17.29Zm-29.8-21.66L12.56,99.37a.63.63,0,0,0-.14-.44.59.59,0,0,1-.15-.44c0-.19,0-.29.15-.29s.14-.1.14-.29l92.34-76L2.34,98.53ZM14.32,98.49l99.05,78.59L19.29,94.69Zm93.21-76.26L20.45,93.52l4.68,4.09ZM26.3,98.8,45,115.16,37.4,88.57Zm14.32-5.26L47,116.63l.3.29L64,131.53Z"/></svg>