<svg id="Layer_1" data-name="Layer 1" xmlns="http://www.w3.org/2000/svg" width="7.04cm" height="7.04cm" viewBox="0 0 199.53 199.52"><defs><style>.cls-1{fill:#dcded5;}.cls-2{fill:#182016;}</style></defs><rect class="cls-1" width="199.53" height="199.52" rx="12"/><path class="cls-2" d="M193.63,189.69c.18.36.18.62,0,.8,0,.18-.17.27-.53.27h-.53L66.26,99.33a1.07,1.07,0,0,1-.26-.79.79.79,0,0,1,.26-.54L181.68,12.23,139,28.22h-.27c-.17,0-.44-.17-.79-.54,0-.53.17-.79.53-.79L186.2,8.76A1.14,1.14,0,0,1,187,9a.67.67,0,0,1,.13.93.86.86,0,0,1-.13.14l-1.33,1.06-84.5,77.29.27.28L128.1,131.9v.26L190,186.23l-21.89-36.78c0-.54.09-.8.27-.8.53-.18.91-.09,1.06.26ZM166.45,170l-89-70.64a.52.52,0,0,0-.14-.39.53.53,0,0,1-.14-.4c0-.17,0-.27.14-.27s.14-.09.14-.27l84.22-69.32L68.13,98.54ZM79.06,98.54l90.31,71.7L83.55,95.07Zm85-69.57L84.66,94l4.26,3.73ZM90,98.81l17.06,14.92-6.94-24.26ZM103.05,94l5.87,21,.26.27,15.19,13.33Z" transform="translate(-1.56 -0.04)"/><path class="cls-2" d="M192.79,189.8c.17.35.17.62,0,.8,0,.17-.17.26-.53.26h-.54L65.39,99.44a1.12,1.12,0,0,1-.27-.8.8.8,0,0,1,.27-.53L180.8,12.28l-42.65,16h-.26c-.19,0-.45-.18-.81-.54,0-.53.19-.8.54-.8L185.33,8.82a1.11,1.11,0,0,1,.8.26.67.67,0,0,1,.14.94.86.86,0,0,1-.14.13l-1.33,1.07-84.5,77.3.27.26L127.22,132v.28l61.85,54.1-21.89-36.78c0-.54.09-.8.26-.8.54-.18.91-.09,1.07.26ZM165.61,170l-89-70.63a.57.57,0,0,0-.13-.4.56.56,0,0,1-.14-.41c0-.17,0-.26.14-.26s.13-.09.13-.26l84.23-69.33L67.26,98.64ZM78.18,98.6l90.36,71.7L82.72,95.14Zm85-69.56-79.43,65,4.27,3.73ZM89.11,98.89l17.06,14.92L99.24,89.56Zm13.06-4.8L108,115.15l.27.27,15.19,13.32Z" transform="translate(-1.56 -0.04)"/><path class="cls-2" d="M137.42,189.69c.18.36.18.62,0,.8,0,.18-.18.27-.53.27h-.53L10.05,99.33a1.08,1.08,0,0,1-.27-.79.81.81,0,0,1,.27-.54L125.47,12.23l-42.66,16h-.26c-.18,0-.45-.17-.8-.54,0-.53.18-.79.53-.79L130,8.76a1.12,1.12,0,0,1,.8.27.66.66,0,0,1,.14.93.93.93,0,0,1-.14.14l-1.33,1.06L45,88.45l.26.28L71.88,131.9v.26l61.89,54.07-21.9-36.78c0-.54.1-.8.28-.8.53-.18.91-.09,1.06.26ZM110.23,170l-89-70.64a.56.56,0,0,0-.13-.39.53.53,0,0,1-.14-.4c0-.17,0-.27.14-.27s.13-.09.13-.27l84.22-69.32L11.92,98.54ZM22.85,98.54l90.3,71.7L27.33,95.07Zm85-69.57L28.45,94l4.26,3.73ZM33.77,98.81l17.06,14.92L43.9,89.47ZM46.84,94l5.86,21,.27.27,15.18,13.33Z" transform="translate(-1.56 -0.04)"/><path class="cls-2" d="M136.58,189.8c.17.35.17.62,0,.8,0,.17-.18.26-.53.26h-.54L9.17,99.44a1.11,1.11,0,0,1-.26-.8.79.79,0,0,1,.26-.53L124.58,12.28l-42.64,16h-.27c-.18,0-.45-.18-.8-.54,0-.53.18-.8.54-.8l47.7-18.12a1.13,1.13,0,0,1,.81.26.68.68,0,0,1,.13.94.8.8,0,0,1-.13.13l-1.33,1.07-84.5,77.3.26.26L71,132v.28l61.84,54.1L111,149.55c0-.54.09-.8.27-.8.53-.18.91-.09,1.06.26ZM109.39,170l-89-70.63a.56.56,0,0,0-.12-.4.56.56,0,0,1-.14-.41c0-.17,0-.26.14-.26s.12-.09.12-.26L104.6,28.75,11,98.64ZM22,98.6l90.35,71.7L26.5,95.14ZM107,29l-79.43,65,4.27,3.73ZM32.9,98.89,50,113.81,43,89.56ZM46,94.09l5.86,21.06.27.27,15.19,13.32Z" transform="translate(-1.56 -0.04)"/></svg>