<svg id="Layer_1" data-name="Layer 1" xmlns="http://www.w3.org/2000/svg" width="42.1cm" height="14.55cm" viewBox="0 0 1193.44 412.41"><defs><style>.cls-1{fill:#182016;}</style></defs><path class="cls-1" d="M243,440.55q.3.58,0,.87c0,.2-.19.3-.58.3h-.58L103.37,341.49a1.18,1.18,0,0,1-.29-.87.89.89,0,0,1,.29-.59L229.9,246l-46.76,17.53h-.29c-.19,0-.49-.19-.87-.59,0-.58.19-.87.58-.87l52.3-19.87a1.23,1.23,0,0,1,.88.29.73.73,0,0,1,0,1.17l-1.46,1.17-92.63,84.73.29.3,29.22,47.33v.29L239,436.75l-24-40.32c0-.59.1-.88.3-.88.58-.19,1-.1,1.16.29Zm-29.8-21.62-97.59-77.44a.58.58,0,0,0-.15-.43.6.6,0,0,1-.15-.44c0-.19.05-.3.15-.3s.15-.09.15-.29l92.33-76L105.42,340.62ZM117.4,340.62l99,78.6-94.08-82.4Zm93.21-76.27-87.07,71.3,4.67,4.09Zm-81.23,76.56,18.7,16.36-7.6-26.59Zm14.32-5.26,6.43,23.08.29.3,16.65,14.61Z" transform="translate(-102.12 -242.15)"/><path class="cls-1" d="M407.55,440.55a1.69,1.69,0,0,1-.59,1.17h-.29a.52.52,0,0,1-.58-.59L364.3,341.2l-3.8,4.09,42.08,95.26a1,1,0,0,1-.29,1.17H402c-.59,0-.88-.2-.88-.59l-41.79-94.67-55.51,60.78L302.06,409,274,439.67V440c-.19,0-.29.05-.29.15s-.1.15-.29.15-.29-.1-.29-.3c-.4,0-.59-.29-.59-.87v-.3L330.7,250.62,317.26,276c-.39.39-.69.59-.88.59l-.29-.3a.93.93,0,0,1-.29-1.16l17.53-32.44c0-.39.29-.58.88-.58a1.18,1.18,0,0,1,.58,1.17L281.9,414.25l59.32-157.2c0-.19.19-.29.58-.29v-.3h.29l.3.3.29.29,57.85,163.63-25.12-94.09c0-.58.19-.88.58-.88.58-.58.88-.48.88.3ZM302.36,406.36l56.39-78.31-19.28-46.16-17.54,31-46.46,123Zm61.07-66.91-3.8-9.64-47.92,66.32ZM325.15,303.8l13.73-23.67-2.34-5.84ZM397,415.71l-54.94-156-5,12.56,3.21,7.31.29.29Z" transform="translate(-102.12 -242.15)"/><path class="cls-1" d="M575.85,440.26a.72.72,0,0,1,0,1.16.84.84,0,0,1-.58.3,1.16,1.16,0,0,1-.88-.3l-101.1-99.63-9.35,5.26,106.65,93.21a.72.72,0,0,1,0,1.16.83.83,0,0,1-.58.3c-.4,0-.59-.1-.59-.3L463.06,348.51l-9.35,92.33a.88.88,0,1,1-1.75,0l-7-151.65L438.52,319c-.39.59-.78.78-1.17.59-.39,0-.58-.29-.58-.88l7.88-36.23c0-.39.3-.58.88-.58s.88.19.88.58L452,404.61V243c0-.19.19-.48.58-.87h.88l103.44,54c.39.4.58.69.58.88s-.19.49-.58.88l-38.57,17.82-43.54,25.13,88.83,87.37-55.23-66.62a.83.83,0,0,1,1.17-1.17ZM453.71,332.44l6.14-35.36-6.14-42.37Zm12,6.13-5-35.94-7,39.74v1.75Zm-3.5,3.51-8.48,3.8v78.31Zm55.51-27.76,28.93-16.66L454,244.78l13.44,92.91,2.33-1.16Zm-45.58,26-2-2-6.14,2.92-.29,4.09Zm28.05-16.07-28.63,13.44,2,1.76ZM551,295,490,263.19l58.43,33.6Zm3.51,2.05-1.75-.88-16.95,9.65Z" transform="translate(-102.12 -242.15)"/><path class="cls-1" d="M735.68,354.06c.19,0,.29.19.29.58s-.1.59-.29.59l-119.8,86.49H615a1.23,1.23,0,0,1-.29-.88l-9.35-191.1a.88.88,0,0,1,1.76,0l7.59,154.87L614.42,243c0-.38.1-.58.29-.58,0-.19.19-.29.59-.29h77.14c.19,0,.48.19.87.58a1.21,1.21,0,0,1-.29.88l-29.8,38.86ZM615.88,243.9v5.84h.29l59.32-5.84Zm.59,17.82V439.09l8.47-6.72Zm30.88,38.87,29.22-55.23-59,6.14,4.09,82.4Zm17.91-5.26-43.54,41.78,5,93.8,100.52-82.4ZM626.4,330.1l37.11-35.94L658,289.48Zm11.1,93.79,96.43-69.25-5.85-5Zm53.18-179.7-12.27,1.17-25.13,47Zm-28.34,39.45L658.83,288l6.43,5.55h.29L717,338Z" transform="translate(-102.12 -242.15)"/><path class="cls-1" d="M960.38,340a.73.73,0,0,1,0,1.17l-97,95.55,29.51-18.41a1,1,0,0,1,1.17.29,1,1,0,0,1-.29,1.17L858.4,441.72h-.58l-.59-.3-91.75-99.05a.74.74,0,0,1,0-1.17L857.82,248l-28.05,19.29a1.65,1.65,0,0,1-1.17-.3c-.39-.19-.29-.58.29-1.17l34.48-23.37c.19-.19.48-.19.88,0ZM767,341.79l.87.87,95.55-77.43L852,256.17Zm2,2,22.79,16.36L776,338Zm4.68,5.26,35.35,38,62.53,33Zm90.87-83-87.37,71,18.7,26,80.06,58.14,44.42-56.68v-.3h.29L946.35,331Zm9.93,157.2-62.23-32.73,6.42,7,53.48,28Zm-16.65,16.36L871,426.81,821.88,401.1Zm92.62-107.23L864,244.19,853.14,255l95,75.39ZM880.9,417.17l77.73-76.55L955.12,338l-33.6,27.17Zm66.92-85-21.63,27.47,27.47-22.79Z" transform="translate(-102.12 -242.15)"/><path class="cls-1" d="M1128.39,312.86a.77.77,0,0,1-.88.87c-.58,0-.87-.19-.87-.58l-6.43-55.81-.58,183.5c0,.2-.2.49-.59.88h-.29c-.39,0-.58-.1-.58-.3l-47.93-73.92L1001,309.94l-9.35,129.44a.88.88,0,1,1-1.75,0V243c0-.19.19-.48.58-.87.59,0,.88.1.88.29l73.93,114.25,7.89,12.27,35.35,44.41L1118.75,243a.77.77,0,0,1,.88-.87q.28,0,.87.87ZM991.64,416.3l11.11-153.11L991.64,246Zm75.68-53.48-3.5-5.26-61.07-70.71-1.46,21Zm-63.11-97.3-1.46,19,54.64,63.11Zm113.66,172.69V428l-35.35-44.41ZM1110,415.13l7.89,10.22.88-152.52Z" transform="translate(-102.12 -242.15)"/><path class="cls-1" d="M291.48,653.66c.13.26.13.46,0,.59s-.13.2-.39.2h-.39l-93.09-67.36a.81.81,0,0,1-.19-.59.59.59,0,0,1,.19-.4l85-63.23-31.42,11.78H251c-.13,0-.33-.13-.59-.39,0-.39.13-.59.39-.59L286,520.32a.78.78,0,0,1,.58.19.5.5,0,0,1,0,.79l-1,.78-62.25,57,.2.19L243.17,611v.2l45.56,39.87L272.63,624c0-.4.07-.59.2-.59.39-.13.65-.07.78.19Zm-20-14.53-65.59-52a.4.4,0,0,0-.1-.3.4.4,0,0,1-.09-.29c0-.13,0-.2.09-.2s.1-.06.1-.2l62.06-51.05L199,586.5ZM207,586.5l66.57,52.82-63.23-55.38Zm62.65-51.26-58.53,47.92,3.15,2.75Zm-54.6,51.45,12.57,11-5.11-17.87Zm9.62-3.53L229,598.67l.2.2,11.19,9.82Z" transform="translate(-102.12 -242.15)"/><path class="cls-1" d="M402,653.66a1.16,1.16,0,0,1-.39.79h-.2a.35.35,0,0,1-.39-.4L373,586.89l-2.55,2.75,28.28,64a.67.67,0,0,1-.2.79h-.2c-.39,0-.59-.13-.59-.4l-28.08-63.63-37.31,40.85-1.18,1.18L312.3,653.07v.2c-.13,0-.2,0-.2.1s-.07.09-.19.09-.2-.06-.2-.19c-.27,0-.39-.2-.39-.59v-.2L350.4,526l-9,17.09c-.26.26-.46.39-.59.39l-.19-.2a.63.63,0,0,1-.2-.78l11.78-21.8c0-.26.2-.39.59-.39a.79.79,0,0,1,.4.78L317.6,636l39.87-105.66c0-.13.12-.19.39-.19v-.2h.19l.2.2.2.19,38.88,110-16.89-63.24c0-.39.13-.59.39-.59.4-.39.59-.32.59.2Zm-70.69-23,37.9-52.63-13-31L344.5,567.84l-31.22,82.68Zm41-45-2.55-6.48-32.21,44.58Zm-25.73-24,9.23-15.9-1.57-3.93ZM395,637,358.05,532.1l-3.33,8.44,2.16,4.91.19.2Z" transform="translate(-102.12 -242.15)"/><path class="cls-1" d="M426.79,520.91a.52.52,0,0,1,.59-.59c.26.13.39.23.39.29s.06.17.2.3l4.12,71.67.2.2,7.26,39.28,49.29-29.26a.5.5,0,0,1,.79,0,.49.49,0,0,1,0,.78l-14.14,21c-.26.39-.53.46-.79.19s-.46-.52-.19-.78l12-17.87-30.05,24.35v.19l-7.66,6.09-.39.39-21.21,17.09a.57.57,0,0,1-.39.2h-.2c-.26-.27-.39-.46-.39-.59l.39-113.32-3.73,62.26a.59.59,0,0,1-1.18,0Zm.59,118.22,5.89-3.54-5.89-16.89Zm25.92-7.46-25.53,8.64-.39.19v2.16L447.8,636Zm-7.86,6.48-18.06,5.69v8.84Zm-17.87-23v.2l5.7,16.88L427.77,539Zm6.68,21.21-.2.19-1.57,1,23.37-7.86,27.1-22Zm-1.57-35.15,2,33.58,3.73-2.16Z" transform="translate(-102.12 -242.15)"/><path class="cls-1" d="M603.53,653.66c.13.26.13.46,0,.59s-.13.2-.39.2h-.4l-93.08-67.36a.81.81,0,0,1-.2-.59.61.61,0,0,1,.2-.4l85-63.23-31.42,11.78h-.2c-.13,0-.32-.13-.59-.39,0-.39.13-.59.4-.59L598,520.32a.81.81,0,0,1,.59.19.5.5,0,0,1,0,.79l-1,.78-62.26,57,.2.19L555.22,611v.2l45.56,39.87L584.68,624c0-.4.06-.59.19-.59.4-.13.66-.07.79.19Zm-20-14.53-65.59-52a.45.45,0,0,0-.1-.3.37.37,0,0,1-.1-.29c0-.13,0-.2.1-.2s.1-.06.1-.2L580,535.05,511,586.5ZM519.08,586.5l66.58,52.82-63.24-55.38Zm62.65-51.26-58.52,47.92,3.14,2.75Zm-54.59,51.45,12.56,11-5.1-17.87Zm9.62-3.53,4.32,15.51.2.2,11.19,9.82Z" transform="translate(-102.12 -242.15)"/><path class="cls-1" d="M718,520.32a.51.51,0,0,1,.58.59V635.2a.55.55,0,0,1-.19.39l-23,18.66c-.13,0-.19,0-.19.1s-.07.1-.2.1H653.21c-.26,0-.39-.07-.39-.2l-23.37-18.66c-.13,0-.2-.13-.2-.39l-3.73-101.33-1,18.46a.59.59,0,0,1-1.18,0l1.57-31.42c.13-.4.33-.59.59-.59a.52.52,0,0,1,.59.59l2.94,78.94-.19-78.94a.59.59,0,0,1,1.18,0l2.35,53.61,6.48,40.85h.2l12.57,25.33,37.9,11,25.14-26.12,2.75-104.67A.52.52,0,0,1,718,520.32Zm-87.79,113.9v.39l3.73,1.18L630,548.4Zm2,2.16,8.64,6.87,25.72,3Zm.59-51.65L635.14,636l6.29,1.76Zm6.67,34.17,3.14,19.25,7.66,2.16Zm13.95,34.37h32.2l-42-7.86Zm-3.54-7.86L689,652.68l-15.51-4.52Zm41.24,6.68,3.73,1,16.89-13.55Zm2.16-2.55,21.21-13,.2-9.23Zm24.16-82.09-1.57,58.13V626l-.2,10,1.77-1.18Z" transform="translate(-102.12 -242.15)"/><path class="cls-1" d="M743.35,520.91a.52.52,0,0,1,.59-.59c.26.13.39.23.39.29s.06.17.2.3l4.12,71.67.2.2,7.26,39.28L805.4,602.8a.5.5,0,0,1,.79,0,.49.49,0,0,1,0,.78l-14.14,21c-.26.39-.53.46-.79.19s-.46-.52-.19-.78l12-17.87-30,24.35v.19l-7.66,6.09-.39.39-21.21,17.09a.57.57,0,0,1-.39.2h-.2c-.26-.27-.39-.46-.39-.59l.39-113.32-3.73,62.26a.59.59,0,0,1-1.18,0Zm.59,118.22,5.89-3.54-5.89-16.89Zm25.92-7.46-25.53,8.64-.39.19v2.16L764.36,636ZM762,638.15l-18.06,5.69v8.84Zm-17.87-23v.2l5.7,16.88L744.33,539Zm6.68,21.21-.2.19-1.57,1,23.37-7.86,27.1-22Zm-1.57-35.15,2,33.58,3.73-2.16Z" transform="translate(-102.12 -242.15)"/><path class="cls-1" d="M916.75,653.66a1.16,1.16,0,0,1-.39.79h-.2a.35.35,0,0,1-.39-.4l-28.09-67.16-2.55,2.75,28.28,64a.64.64,0,0,1-.2.79H913c-.4,0-.59-.13-.59-.4l-28.08-63.63L847,631.27l-1.18,1.18L827,653.07v.2c-.13,0-.19,0-.19.1s-.07.09-.2.09-.2-.06-.2-.19c-.26,0-.39-.2-.39-.59v-.2L865.1,526l-9,17.09c-.27.26-.46.39-.59.39l-.2-.2a.64.64,0,0,1-.2-.78l11.79-21.8c0-.26.2-.39.59-.39a.79.79,0,0,1,.39.78L832.31,636l39.86-105.66c0-.13.13-.19.39-.19v-.2h.2l.2.2.19.19,38.89,110-16.89-63.24c0-.39.13-.59.39-.59.39-.39.59-.32.59.2Zm-70.7-23L884,578.05l-13-31-11.78,20.81L828,650.52Zm41-45-2.55-6.48-32.2,44.58Zm-25.72-24,9.23-15.9L869,541.92ZM909.68,637,872.76,532.1l-3.34,8.44,2.16,4.91.2.2Z" transform="translate(-102.12 -242.15)"/><path class="cls-1" d="M1030.65,528.17a.59.59,0,1,1,0,1.18H998.84l-9,18.26-5.69,106.25a.59.59,0,0,1-1.18,0l.39-6.48V592.19l-12-62.84H937a.52.52,0,0,1-.59-.59c0-.13.19-.32.59-.59l83.06-4.91-35.93-1.76c-.27,0-.4-.2-.4-.59a.52.52,0,0,1,.59-.59l46.15,2.35a.59.59,0,1,1,0,1.18l-74.62,4.32h74.82ZM983.32,586.1l-.2-56.75h-10.6Zm1.18,40.66,4.12-79.34,1-18.07H984.3Zm13-97.41h-6.68L990,544.67Z" transform="translate(-102.12 -242.15)"/><path class="cls-1" d="M1182.06,586.1a.5.5,0,0,1,0,.79l-65.2,64.22,19.83-12.38a.67.67,0,0,1,.79.2.65.65,0,0,1-.2.79l-23.76,14.73h-.39l-.39-.2-61.67-66.57a.5.5,0,0,1,0-.79l62.06-62.64-18.85,13a1.14,1.14,0,0,1-.79-.2c-.26-.13-.2-.39.2-.79l23.17-15.71c.13-.13.32-.13.59,0Zm-130,1.18.59.59,64.22-52-7.66-6.09Zm1.38,1.38,15.32,11-10.61-14.93Zm3.14,3.53,23.76,25.53,42,22.19Zm61.07-55.77-58.71,47.72,12.57,17.48,53.8,39.08,29.85-38.1v-.2h.2L1172.63,580Zm6.68,105.65-41.83-22,4.32,4.71,35.94,18.85Zm-11.19,11,8.83-8.64-33-17.28ZM1175.38,581l-58.13-59.31L1110,529l63.82,50.66Zm-46.74,57,52.24-51.45-2.36-1.77L1155.94,603Zm45-57.15-14.53,18.46,18.46-15.32Z" transform="translate(-102.12 -242.15)"/><path class="cls-1" d="M1295.37,653.46a.5.5,0,0,1,0,.79.57.57,0,0,1-.39.2.79.79,0,0,1-.59-.2l-68-67-6.28,3.54,71.67,62.64a.5.5,0,0,1,0,.79.57.57,0,0,1-.39.2c-.26,0-.39-.07-.39-.2l-71.48-62.45-6.29,62.06a.59.59,0,0,1-1.18,0l-4.71-101.93-4.32,20c-.26.39-.53.52-.79.39s-.39-.2-.39-.59l5.3-24.35c0-.26.2-.39.59-.39s.59.13.59.39l3.73,82.08V520.91c0-.13.13-.33.4-.59h.58l69.52,36.33c.27.26.4.46.4.59s-.13.33-.4.59l-25.92,12-29.26,16.89,59.7,58.72L1250,600.64a.56.56,0,0,1,.79-.79ZM1213.28,581l4.13-23.76-4.13-28.48Zm8,4.12L1218,561l-4.72,26.71v1.17Zm-2.35,2.36-5.7,2.55v52.63Zm37.31-18.66,19.44-11.19-62.25-35.55,9,62.45,1.57-.78Zm-30.64,17.48-1.37-1.37-4.12,2-.2,2.75Zm18.86-10.8-19.25,9,1.38,1.18Zm34.17-19.64-41-21.4L1276.91,557Zm2.35,1.38-1.18-.59-11.39,6.48Z" transform="translate(-102.12 -242.15)"/><path class="cls-1" d="M242.08,440.66c.19.39.19.69,0,.88,0,.19-.19.29-.58.29h-.59L102.41,341.61a1.23,1.23,0,0,1-.29-.88.85.85,0,0,1,.29-.58l126.52-94.09-46.75,17.53h-.29c-.2,0-.49-.19-.88-.59,0-.58.2-.87.59-.87l52.3-19.87a1.23,1.23,0,0,1,.88.29.73.73,0,0,1,0,1.17l-1.46,1.17-92.63,84.74.29.29,29.22,47.33v.3L238,436.86l-24-40.32c0-.59.1-.88.29-.88.59-.19,1-.09,1.17.29ZM212.28,419l-97.6-77.43a.63.63,0,0,0-.14-.44.59.59,0,0,1-.15-.44c0-.19,0-.29.15-.29s.14-.1.14-.29l92.34-76L104.46,340.73Zm-95.84-78.31,99.05,78.6-94.08-82.4Zm93.21-76.26-87.08,71.29,4.68,4.09ZM128.42,341l18.7,16.36-7.6-26.59Zm14.32-5.26,6.42,23.09.3.29,16.65,14.61Z" transform="translate(-102.12 -242.15)"/><path class="cls-1" d="M406.58,440.66a1.68,1.68,0,0,1-.58,1.17h-.29a.52.52,0,0,1-.59-.58l-41.78-99.94-3.8,4.09,42.08,95.26a1,1,0,0,1-.29,1.17H401c-.58,0-.87-.19-.87-.58l-41.79-94.68-55.52,60.78-1.75,1.75-28.05,30.68v.3c-.2,0-.29.05-.29.14s-.1.15-.29.15a.26.26,0,0,1-.3-.29c-.39,0-.58-.3-.58-.88v-.29l58.15-188.18L316.3,276.15c-.4.4-.69.59-.88.59l-.29-.29a1,1,0,0,1-.3-1.17l17.54-32.44c0-.38.29-.58.87-.58a1.18,1.18,0,0,1,.59,1.17L280.94,414.36l59.32-157.2c0-.19.19-.29.58-.29v-.29h.29l.29.29.3.29,57.85,163.63L374.44,326.7c0-.58.19-.87.59-.87.58-.59.87-.49.87.29ZM301.39,406.47l56.4-78.31L338.5,282,321,313,274.51,436Zm61.07-66.91-3.8-9.64-47.92,66.33Zm-38.27-35.65,13.73-23.67-2.34-5.84Zm71.88,111.91-54.94-156-5,12.57,3.21,7.3.29.29Z" transform="translate(-102.12 -242.15)"/><path class="cls-1" d="M574.89,440.37a.73.73,0,0,1,0,1.17.87.87,0,0,1-.59.29,1.18,1.18,0,0,1-.87-.29L472.33,341.9,463,347.16l106.65,93.21a.73.73,0,0,1,0,1.17.87.87,0,0,1-.59.29c-.39,0-.58-.1-.58-.29L462.1,348.62,452.75,441a.88.88,0,1,1-1.75,0L444,289.3l-6.42,29.81c-.4.58-.78.78-1.17.58-.39,0-.59-.29-.59-.88l7.89-36.23c0-.39.29-.58.88-.58s.88.19.88.58L451,404.72V243.14c0-.2.19-.49.58-.88h.88L555.9,296.32c.38.39.58.68.58.87s-.2.49-.58.88l-38.57,17.82L473.79,341l88.83,87.37-55.23-66.62a.83.83,0,0,1,1.17-1.17ZM452.75,332.55l6.14-35.36-6.14-42.37Zm12,6.13-5-35.94-7,39.74v1.76Zm-3.51,3.51-8.47,3.8V424.3Zm55.52-27.76,28.93-16.65L453,244.89l13.44,92.92,2.34-1.17Zm-45.58,26-2.05-2.05L463,341.31l-.29,4.09Zm28-16.07-28.64,13.44,2.05,1.75Zm50.84-29.22L489,263.3l58.44,33.6Zm3.51,2-1.75-.87L534.86,306Z" transform="translate(-102.12 -242.15)"/><path class="cls-1" d="M734.72,354.17c.19,0,.29.2.29.58s-.1.59-.29.59l-119.8,86.49H614a1.19,1.19,0,0,1-.29-.88L604.4,249.86a.88.88,0,1,1,1.75,0l7.6,154.86-.29-161.58c0-.39.09-.59.29-.59,0-.19.19-.29.58-.29h77.14c.2,0,.49.2.88.58a1.19,1.19,0,0,1-.29.88l-29.81,38.86ZM614.92,244v5.85h.29L674.53,244Zm.58,17.83V439.2l8.48-6.72Zm30.88,38.86,29.22-55.23-59,6.14,4.09,82.4Zm17.92-5.26-43.54,41.78,5,93.8,100.52-82.4Zm-38.86,34.77,37.11-35.94L657,289.59Zm11.1,93.8L733,354.75l-5.85-5ZM689.72,244.3l-12.27,1.17-25.13,47Zm-28.34,39.45-3.51,4.38,6.43,5.56h.29L716,338.1Z" transform="translate(-102.12 -242.15)"/><path class="cls-1" d="M959.42,340.15a.73.73,0,0,1,0,1.16l-97,95.55,29.51-18.41a.85.85,0,0,1,.88,1.46l-35.36,21.92h-.58l-.59-.29-91.75-99.06a.73.73,0,0,1,0-1.17l92.34-93.21L828.8,267.39a1.69,1.69,0,0,1-1.16-.29c-.4-.2-.3-.59.29-1.17l34.48-23.38q.29-.28.87,0ZM766,341.9l.88.87,95.55-77.43L851,256.28Zm2,2,22.79,16.37L775,338.1Zm4.67,5.26,35.36,38,62.53,33Zm90.88-83-87.37,71,18.7,26L875,421.38l44.42-56.69v-.29h.29l25.71-33.31Zm9.93,157.2-62.24-32.73,6.43,7,53.47,28.05Zm-16.65,16.36L870,426.93l-49.08-25.72Zm92.62-107.23L863,244.3l-10.81,10.82,95,75.38Zm-69.54,84.73,77.72-76.55-3.5-2.63-33.61,27.17Zm66.91-85-21.62,27.46,27.47-22.79Z" transform="translate(-102.12 -242.15)"/><path class="cls-1" d="M1127.43,313a.78.78,0,0,1-.88.88c-.58,0-.87-.19-.87-.59l-6.43-55.81-.59,183.5c0,.2-.19.49-.58.88h-.29c-.4,0-.59-.1-.59-.29l-47.92-73.93L1000,310.05l-9.35,129.44a.88.88,0,1,1-1.75,0V243.14c0-.2.19-.49.58-.88.59,0,.88.1.88.29l73.92,114.25,7.89,12.27,35.36,44.42,10.23-170.35a.77.77,0,0,1,.87-.88c.19,0,.49.29.88.88ZM990.68,416.41l11.1-153.11-11.1-17.24Zm75.68-53.47-3.51-5.26L1001.78,287l-1.46,21Zm-63.11-97.31-1.47,19,54.64,63.11Zm113.66,172.69V428.1l-35.36-44.42ZM1109,415.24l7.89,10.23.88-152.53Z" transform="translate(-102.12 -242.15)"/><path class="cls-1" d="M290.52,653.77c.13.27.13.46,0,.59s-.13.2-.39.2h-.39L196.65,587.2a.81.81,0,0,1-.19-.59.55.55,0,0,1,.19-.39l85-63.24-31.42,11.79h-.19c-.13,0-.33-.13-.59-.4,0-.39.13-.59.39-.59L285,520.43a.81.81,0,0,1,.59.2.49.49,0,0,1,0,.78l-1,.79-62.25,56.95.19.19,19.64,31.82v.19l45.56,39.87-16.1-27.1c0-.39.06-.59.2-.59.39-.13.65-.07.78.2Zm-20-14.53-65.59-52a.4.4,0,0,0-.1-.3.37.37,0,0,1-.1-.29c0-.13,0-.2.1-.2s.1-.06.1-.19L267,535.16,198,586.61Zm-64.41-52.63,66.57,52.83-63.23-55.38Zm62.64-51.26L210.2,583.27l3.14,2.75Zm-54.59,51.46,12.57,11-5.11-17.87Zm9.62-3.54,4.32,15.52.2.19,11.19,9.82Z" transform="translate(-102.12 -242.15)"/><path class="cls-1" d="M401.08,653.77a1.13,1.13,0,0,1-.39.79h-.2a.34.34,0,0,1-.39-.39L372,587l-2.56,2.75,28.28,64a.65.65,0,0,1-.19.79h-.2c-.39,0-.59-.13-.59-.39l-28.08-63.63-37.31,40.84-1.18,1.18-18.85,20.62v.2c-.14,0-.2,0-.2.1s-.07.1-.2.1-.19-.07-.19-.2c-.27,0-.4-.2-.4-.59v-.2l39.08-126.47-9,17.09c-.26.26-.46.39-.59.39l-.2-.19a.65.65,0,0,1-.19-.79l11.78-21.8c0-.26.2-.39.59-.39a.79.79,0,0,1,.39.78L316.64,636.1,356.5,530.45c0-.13.13-.2.4-.2v-.2h.19l.2.2.19.2,38.89,110-16.89-63.24c0-.39.13-.59.39-.59.4-.39.59-.32.59.2Zm-70.7-23,37.91-52.63-13-31L343.54,568l-31.22,82.68Zm41.05-45-2.55-6.48-32.21,44.58Zm-25.73-24L354.93,546,353.36,542ZM394,637.08,357.09,532.21l-3.34,8.45,2.16,4.91.2.19Z" transform="translate(-102.12 -242.15)"/><path class="cls-1" d="M425.82,521a.52.52,0,0,1,.59-.59c.26.13.4.23.4.29s.06.17.19.3l4.13,71.68.19.19,7.27,39.28,49.29-29.26a.56.56,0,0,1,.79.79l-14.14,21c-.27.39-.53.46-.79.19s-.46-.52-.19-.78l12-17.87-30,24.35v.2l-7.66,6.08-.39.4-21.21,17.08a.59.59,0,0,1-.4.2h-.19c-.27-.26-.39-.46-.39-.59l.39-113.31-3.73,62.25a.59.59,0,1,1-1.18,0Zm.59,118.22,5.9-3.53-5.9-16.89Zm25.93-7.46-25.53,8.64-.4.19v2.16l20.43-6.67Zm-7.86,6.48L426.41,644v8.84Zm-17.87-23v.2l5.7,16.89-5.5-93.28Zm6.68,21.21-.2.2-1.57,1,23.37-7.86,27.1-22Zm-1.57-35.15,2,33.58,3.73-2.16Z" transform="translate(-102.12 -242.15)"/><path class="cls-1" d="M602.57,653.77c.12.27.12.46,0,.59s-.14.2-.4.2h-.39L508.7,587.2a.77.77,0,0,1-.2-.59.53.53,0,0,1,.2-.39l85-63.24-31.42,11.79h-.2c-.13,0-.33-.13-.59-.4,0-.39.13-.59.4-.59l35.15-13.35a.83.83,0,0,1,.59.2.49.49,0,0,1,0,.78l-1,.79-62.25,56.95.2.19,19.64,31.82v.19l45.56,39.87-16.11-27.1c0-.39.07-.59.2-.59.39-.13.65-.07.79.2Zm-20-14.53-65.6-52a.45.45,0,0,0-.09-.3.37.37,0,0,1-.1-.29c0-.13,0-.2.1-.2s.09-.06.09-.19L579,535.16l-68.93,51.45Zm-64.42-52.63,66.58,52.83-63.24-55.38Zm62.65-51.26-58.52,47.92,3.14,2.75Zm-54.6,51.46,12.57,11-5.1-17.87Zm9.63-3.54,4.32,15.52.19.19,11.2,9.82Z" transform="translate(-102.12 -242.15)"/><path class="cls-1" d="M717.05,520.43a.52.52,0,0,1,.59.59V635.31a.57.57,0,0,1-.19.4l-23,18.65c-.13,0-.2,0-.2.1s-.06.1-.19.1H652.25c-.27,0-.4-.07-.4-.2l-23.36-18.65c-.14,0-.2-.13-.2-.4L624.56,534l-1,18.46a.59.59,0,0,1-1.18,0L624,521c.13-.39.32-.59.59-.59a.52.52,0,0,1,.59.59L628.09,600,627.9,521a.59.59,0,1,1,1.17,0l2.36,53.61,6.48,40.85h.2l12.57,25.33,37.9,11,25.13-26.12L716.46,521A.52.52,0,0,1,717.05,520.43Zm-87.78,113.9v.39L633,635.9l-3.93-87.39Zm2,2.16,8.65,6.87,25.72,2.95Zm.59-51.65,2.36,51.26,6.28,1.77ZM638.5,619l3.14,19.25,7.66,2.16Zm13.94,34.37h32.21l-42-7.86Zm-3.53-7.86L688,652.79l-15.52-4.52Zm41.24,6.68,3.73,1,16.89-13.55Zm2.16-2.55,21.21-13,.19-9.23Zm24.15-82.09-1.57,58.13v.39l-.19,10,1.76-1.18Z" transform="translate(-102.12 -242.15)"/><path class="cls-1" d="M742.38,521a.52.52,0,0,1,.59-.59c.27.13.4.23.4.29s.06.17.19.3l4.13,71.68.19.19,7.27,39.28,49.29-29.26a.56.56,0,0,1,.79.79l-14.14,21c-.27.39-.53.46-.79.19s-.46-.52-.19-.78l12-17.87L772,630.6v.2l-7.66,6.08-.39.4-21.21,17.08a.59.59,0,0,1-.4.2h-.19c-.27-.26-.39-.46-.39-.59l.39-113.31-3.73,62.25a.59.59,0,0,1-1.18,0ZM743,639.24l5.9-3.53L743,618.82Zm25.93-7.46-25.53,8.64-.4.19v2.16l20.43-6.67ZM761,638.26,743,644v8.84Zm-17.87-23v.2l5.7,16.89-5.5-93.28Zm6.68,21.21-.2.2-1.57,1,23.37-7.86,27.1-22Zm-1.57-35.15,2,33.58,3.73-2.16Z" transform="translate(-102.12 -242.15)"/><path class="cls-1" d="M915.79,653.77a1.14,1.14,0,0,1-.4.79h-.19a.35.35,0,0,1-.4-.39L886.72,587l-2.55,2.75,28.28,64a.65.65,0,0,1-.2.79h-.19c-.4,0-.59-.13-.59-.39l-28.09-63.63-37.31,40.84-1.18,1.18L826,653.18v.2c-.13,0-.2,0-.2.1s-.06.1-.19.1a.18.18,0,0,1-.2-.2c-.26,0-.39-.2-.39-.59v-.2l39.08-126.47-9,17.09c-.27.26-.47.39-.59.39l-.2-.19a.65.65,0,0,1-.2-.79l11.79-21.8c0-.26.19-.39.59-.39a.79.79,0,0,1,.39.78L831.34,636.1l39.87-105.65c0-.13.13-.2.39-.2v-.2h.2l.19.2.2.2,38.88,110-16.88-63.24c0-.39.12-.59.39-.59.39-.39.59-.32.59.2Zm-70.7-23L883,578.17l-13-31L858.25,568,827,650.63Zm41-45-2.55-6.48-32.2,44.58Zm-25.72-24L869.64,546,868.07,542Zm48.31,75.21L871.8,532.21l-3.34,8.45,2.16,4.91.2.19Z" transform="translate(-102.12 -242.15)"/><path class="cls-1" d="M1029.69,528.29a.59.59,0,1,1,0,1.17H997.87l-9,18.27L983.15,654a.59.59,0,0,1-1.18,0l.39-6.48V592.3l-12-62.84H936a.52.52,0,0,1-.59-.59c0-.12.2-.32.59-.58l83.07-4.91-35.93-1.77c-.27,0-.4-.2-.4-.59a.52.52,0,0,1,.59-.59l46.15,2.36a.59.59,0,1,1,0,1.17l-74.62,4.33h74.82Zm-47.33,57.93-.2-56.76h-10.6Zm1.18,40.65,4.12-79.34,1-18.07h-5.3Zm13-97.41h-6.68L989,544.78Z" transform="translate(-102.12 -242.15)"/><path class="cls-1" d="M1181.1,586.22a.49.49,0,0,1,0,.78l-65.2,64.22,19.83-12.37a.57.57,0,1,1,.59,1l-23.76,14.73h-.39l-.4-.2-61.66-66.57a.5.5,0,0,1,0-.79l62.06-62.64-18.86,13a1.13,1.13,0,0,1-.78-.2c-.27-.13-.2-.39.19-.78l23.18-15.71c.13-.13.32-.13.59,0Zm-130,1.18.59.58,64.22-52-7.66-6.08Zm1.38,1.37,15.31,11-10.6-14.93Zm3.14,3.53,23.76,25.53,42,22.2Zm61.07-55.77L1058,584.25l12.57,17.48,53.81,39.08,29.85-38.1v-.19h.2l17.28-22.39Zm6.68,105.66-41.83-22,4.32,4.71,35.94,18.86Zm-11.19,11,8.83-8.64-33-17.28Zm62.25-72.07-58.13-59.31-7.27,7.27,63.83,50.67Zm-46.74,56.95,52.24-51.45-2.36-1.77L1155,603.11Zm45-57.14-14.53,18.46,18.46-15.32Z" transform="translate(-102.12 -242.15)"/><path class="cls-1" d="M1294.41,653.58a.49.49,0,0,1,0,.78.59.59,0,0,1-.4.2.81.81,0,0,1-.59-.2l-67.94-67-6.29,3.53,71.68,62.65a.49.49,0,0,1,0,.78.57.57,0,0,1-.39.2c-.26,0-.39-.07-.39-.2l-71.49-62.45L1212.32,654a.59.59,0,0,1-1.18,0l-4.71-101.92-4.32,20c-.27.39-.53.52-.79.39s-.39-.2-.39-.59l5.3-24.35c0-.26.2-.39.59-.39s.59.13.59.39l3.73,82.09V521c0-.13.13-.33.39-.59h.59l69.52,36.33c.26.26.4.46.4.59s-.14.33-.4.59l-25.92,12-29.26,16.89,59.7,58.71L1249,600.75a.56.56,0,0,1,.79-.79Zm-82.09-72.47,4.12-23.76-4.12-28.48Zm8,4.13L1217,561.08l-4.71,26.71V589Zm-2.36,2.35-5.69,2.55v52.63Zm37.32-18.65,19.44-11.2-62.25-35.54,9,62.45,1.57-.79Zm-30.64,17.47-1.37-1.37-4.13,2-.19,2.75Zm18.85-10.8-19.24,9,1.37,1.17ZM1277.71,556l-41-21.4L1276,557.15Zm2.36,1.38-1.18-.59-11.39,6.48Z" transform="translate(-102.12 -242.15)"/></svg>